<?xml version="1.0" standalone="no"?>
<!DOCTYPE svg PUBLIC "-//W3C//DTD SVG 20010904//EN"
 "http://www.w3.org/TR/2001/REC-SVG-20010904/DTD/svg10.dtd">
<svg version="1.0" xmlns="http://www.w3.org/2000/svg"
 width="640.000000pt" height="640.000000pt" viewBox="0 0 640.000000 640.000000"
 preserveAspectRatio="xMidYMid meet">
<metadata>
Created by potrace 1.14, written by Peter Selinger 2001-2017
</metadata>
<g transform="translate(0.000000,640.000000) scale(0.100000,-0.100000)"
fill="#000000" stroke="none">
<path d="M3107 6354 c-1 -1 -51 -4 -112 -8 -60 -3 -119 -8 -130 -10 -11 -2
-49 -7 -85 -11 -87 -9 -364 -68 -470 -100 -47 -15 -92 -28 -100 -30 -8 -2 -40
-13 -70 -25 -30 -12 -66 -25 -80 -30 -36 -12 -88 -34 -207 -91 -58 -27 -109
-49 -114 -49 -5 0 -9 -3 -9 -8 0 -4 -15 -14 -32 -21 -52 -23 -270 -158 -315
-196 -7 -5 -19 -16 -27 -22 -8 -7 -18 -13 -21 -13 -5 0 -139 -103 -155 -120
-3 -3 -43 -39 -90 -80 -89 -79 -199 -191 -270 -275 -23 -27 -52 -61 -63 -75
-78 -91 -173 -229 -280 -401 -106 -173 -271 -563 -313 -741 -7 -30 -12 -51
-29 -118 -19 -76 -21 -89 -40 -195 -34 -194 -40 -270 -39 -535 0 -129 3 -262
6 -295 9 -83 18 -149 23 -176 3 -13 8 -44 11 -69 3 -25 7 -53 10 -62 5 -16 8
-33 19 -88 3 -14 12 -50 20 -80 9 -30 18 -63 20 -73 26 -114 119 -363 193
-517 99 -205 235 -423 373 -596 100 -127 295 -329 412 -429 32 -28 64 -55 70
-60 80 -71 340 -245 472 -317 112 -61 257 -131 295 -143 14 -4 30 -11 35 -15
10 -8 266 -97 302 -105 10 -2 70 -17 133 -33 125 -32 262 -58 350 -67 19 -2
64 -8 100 -12 132 -16 689 -6 722 13 4 3 26 7 50 10 24 3 54 8 68 10 14 3 48
9 75 14 162 28 440 113 620 190 76 33 258 123 345 172 127 71 399 267 505 363
109 99 236 229 304 310 23 28 50 59 60 70 103 119 275 383 363 560 38 76 63
131 139 310 34 81 124 393 134 465 2 14 10 57 19 95 8 39 17 99 21 135 4 36 9
74 11 85 16 79 22 411 10 565 -12 150 -14 167 -32 260 -2 8 -6 33 -9 55 -7 55
-15 97 -21 117 -3 9 -6 25 -8 35 -2 10 -9 38 -16 63 -7 25 -14 52 -16 60 -14
58 -36 138 -44 155 -5 11 -12 31 -16 45 -15 57 -108 279 -160 383 -71 143
-122 230 -198 341 -34 49 -65 96 -71 105 -20 30 -170 217 -215 265 -147 160
-325 321 -464 421 -16 11 -34 25 -40 30 -7 6 -19 15 -28 20 -8 6 -48 31 -87
58 -39 26 -76 47 -81 47 -6 0 -10 5 -10 10 0 6 -5 10 -10 10 -6 0 -29 12 -53
27 -149 94 -528 254 -712 299 -5 2 -19 5 -30 7 -11 3 -58 15 -105 26 -99 25
-119 29 -180 37 -25 3 -54 8 -65 11 -31 7 -161 22 -250 29 -70 5 -313 12 -318
8z"/>
</g>
</svg>
